<?xml version="1.0" encoding="UTF-8"?>
<!-- Generator: Adobe Illustrator 15.0.2, SVG Export Plug-In . SVG Version: 6.00 Build 0)  -->
<!DOCTYPE svg PUBLIC "-//W3C//DTD SVG 1.1//EN" "http://www.w3.org/Graphics/SVG/1.1/DTD/svg11.dtd">
<svg xmlns="http://www.w3.org/2000/svg" xmlns:xlink="http://www.w3.org/1999/xlink" version="1.1" id="Layer_1" x="0px" y="0px" width="512px" height="384px" viewBox="0 0 512 384" enable-background="new 0 0 512 384" xml:space="preserve">
<path d="M469.333,0h-320c-14.719,0-26.349,7.469-34.025,18.771L0,191.896l115.308,173.115C122.984,376.323,134.614,384,149.333,384  h320C492.906,384,512,364.906,512,341.333V42.667C512,19.094,492.906,0,469.333,0z M405.333,268.479l-30.188,30.188l-76.479-76.479  l-76.479,76.479L192,268.479L268.479,192L192,115.521l30.188-30.188l76.479,76.479l76.479-76.479l30.188,30.188L328.854,192  L405.333,268.479z" fill="#000000"/>
</svg>
